<svg width="684" height="684" viewBox="0 0 684 684" fill="none" xmlns="http://www.w3.org/2000/svg">
<g clip-path="url(#clip0_8484_6227)">
<rect width="684" height="684" fill="#F1F7F3"/>
<g clip-path="url(#clip1_8484_6227)">
<rect x="191" y="354.24" width="137.32" height="137.32" rx="18" fill="white"/>
<g clip-path="url(#clip2_8484_6227)">
<path d="M259.66 395.436C274.828 395.436 287.124 407.732 287.124 422.9V442.125C287.124 444.31 286.256 446.406 284.711 447.951C283.166 449.496 281.07 450.364 278.885 450.364H261.033V438.316C261.033 435.566 261.201 432.718 262.643 430.378C263.675 428.702 265.056 427.266 266.692 426.17C268.327 425.074 270.18 424.342 272.123 424.025L272.649 423.94C272.866 423.865 273.054 423.725 273.187 423.539C273.321 423.353 273.392 423.129 273.392 422.9C273.392 422.671 273.321 422.447 273.187 422.261C273.054 422.075 272.866 421.935 272.649 421.861L272.123 421.775C269.284 421.312 266.662 419.967 264.627 417.933C262.593 415.899 261.249 413.276 260.785 410.437L260.7 409.911C260.625 409.694 260.485 409.506 260.299 409.373C260.113 409.239 259.889 409.168 259.66 409.168C259.431 409.168 259.207 409.239 259.021 409.373C258.835 409.506 258.695 409.694 258.621 409.911L258.535 410.437C258.218 412.38 257.486 414.233 256.39 415.869C255.294 417.504 253.859 418.885 252.182 419.917C249.842 421.359 246.994 421.527 244.245 421.527H232.229C232.947 406.997 244.953 395.436 259.66 395.436Z" fill="#F06225"/>
<path d="M232.196 424.273H244.244C246.993 424.273 249.841 424.441 252.181 425.883C254.01 427.01 255.55 428.549 256.677 430.378C258.119 432.718 258.286 435.566 258.286 438.316V450.364H240.435C238.25 450.364 236.154 449.496 234.609 447.951C233.064 446.406 232.196 444.31 232.196 442.125V424.273ZM287.124 398.182C287.124 398.911 286.834 399.609 286.319 400.124C285.804 400.639 285.106 400.929 284.377 400.929C283.649 400.929 282.95 400.639 282.435 400.124C281.92 399.609 281.631 398.911 281.631 398.182C281.631 397.454 281.92 396.755 282.435 396.24C282.95 395.725 283.649 395.436 284.377 395.436C285.106 395.436 285.804 395.725 286.319 396.24C286.834 396.755 287.124 397.454 287.124 398.182Z" fill="#F06225"/>
</g>
<rect x="29.9995" y="515.96" width="137.32" height="137.32" rx="18" fill="white"/>
<path fill-rule="evenodd" clip-rule="evenodd" d="M98.6598 613.801C114.776 613.801 127.84 600.736 127.84 584.62C127.84 568.504 114.776 555.439 98.6598 555.439C82.5438 555.439 69.4792 568.504 69.4792 584.62C69.4792 600.736 82.5438 613.801 98.6598 613.801ZM103.164 577.985C105.651 575.498 105.651 571.465 103.164 568.977C100.676 566.49 96.6434 566.49 94.1559 568.977C91.6685 571.465 91.6685 575.498 94.1559 577.985L98.6598 582.489L103.164 577.985ZM105.295 589.124C107.782 591.611 111.815 591.611 114.303 589.124C116.79 586.636 116.79 582.604 114.303 580.116C111.815 577.629 107.782 577.629 105.295 580.116L100.791 584.62L105.295 589.124ZM103.164 600.263C105.651 597.775 105.651 593.742 103.164 591.255L98.6598 586.751L94.1559 591.255C91.6685 593.742 91.6685 597.775 94.1559 600.263C96.6434 602.75 100.676 602.75 103.164 600.263ZM83.017 589.124C80.5296 586.636 80.5296 582.604 83.017 580.116C85.5046 577.629 89.5375 577.629 92.025 580.116L96.5288 584.62L92.025 589.124C89.5375 591.611 85.5046 591.611 83.017 589.124Z" fill="#7F57F1"/>
<rect x="353" y="30.2798" width="137.32" height="137.32" rx="18" fill="white"/>
<path fill-rule="evenodd" clip-rule="evenodd" d="M421.66 128.12C437.776 128.12 450.84 115.056 450.84 98.9397C450.84 82.8238 437.776 69.7593 421.66 69.7593C405.544 69.7593 392.479 82.8238 392.479 98.9397C392.479 115.056 405.544 128.12 421.66 128.12ZM430.763 83.3528C431.206 81.7788 429.679 80.848 428.284 81.8419L408.81 95.7147C407.297 96.7925 407.535 98.9397 409.168 98.9397H414.296V98.9H424.29L416.146 101.773L412.556 114.527C412.113 116.101 413.641 117.031 415.036 116.038L434.509 102.165C436.022 101.087 435.784 98.9397 434.152 98.9397H426.375L430.763 83.3528Z" fill="#F15757"/>
<rect x="191" y="192.6" width="137.32" height="137.32" rx="18" fill="white"/>
<g clip-path="url(#clip3_8484_6227)">
<path fill-rule="evenodd" clip-rule="evenodd" d="M241.981 243.931V254.954C242.826 254.745 243.656 254.469 244.463 254.127C246.505 253.262 248.361 251.994 249.924 250.395C251.487 248.796 252.727 246.898 253.573 244.809C254.102 243.504 254.47 242.139 254.672 240.748C250.351 241.176 246.076 242.237 241.981 243.931ZM234.059 238.604V255.438V263.54V263.793C234.059 277.917 245.254 289.366 259.063 289.366C272.872 289.366 284.067 277.917 284.067 263.793V263.54V255.438V238.604L280.406 236.974C266.794 230.914 251.332 230.914 237.721 236.974L234.059 238.604ZM241.983 264.024C242.085 272.086 247.525 278.83 254.855 280.73C254.851 278.478 254.416 276.249 253.573 274.169C252.727 272.08 251.487 270.182 249.924 268.583C248.361 266.984 246.505 265.716 244.463 264.851C243.656 264.509 242.827 264.233 241.983 264.024ZM258.816 267.019C257.868 265.519 256.766 264.122 255.526 262.854C254.285 261.585 252.919 260.458 251.453 259.489C252.919 258.52 254.285 257.393 255.526 256.124C256.766 254.855 257.868 253.458 258.816 251.958C259.763 253.458 260.865 254.855 262.106 256.124C263.346 257.393 264.712 258.52 266.179 259.489C264.712 260.458 263.346 261.585 262.106 262.854C260.865 264.122 259.763 265.519 258.816 267.019ZM262.777 280.85C270.39 279.124 276.092 272.202 276.145 263.909C275.129 264.128 274.132 264.442 273.169 264.851C271.126 265.716 269.27 266.984 267.707 268.583C266.144 270.182 264.904 272.08 264.058 274.169C263.212 276.258 262.777 278.497 262.777 280.758V280.85ZM273.169 254.127C274.133 254.535 275.129 254.85 276.145 255.069V243.931C271.892 242.171 267.444 241.095 262.952 240.701C263.153 242.109 263.523 243.489 264.058 244.809C264.904 246.898 266.144 248.796 267.707 250.395C269.27 251.994 271.126 253.262 273.169 254.127Z" fill="#193070"/>
</g>
<rect x="353" y="353.88" width="137.32" height="137.32" rx="18" fill="white"/>
<path d="M437.084 418.967C436.254 419.802 435.617 420.811 435.221 421.921C434.825 423.031 434.678 424.214 434.792 425.387L434.752 425.348C434.869 426.728 434.682 428.118 434.206 429.419C433.731 430.72 432.977 431.902 431.997 432.882C431.017 433.862 429.835 434.616 428.534 435.092C427.233 435.567 425.843 435.754 424.463 435.637L424.502 435.677C422.851 435.523 421.192 435.882 419.752 436.706C418.312 437.529 417.161 438.777 416.457 440.278C415.752 441.78 415.527 443.462 415.813 445.096C416.1 446.73 416.883 448.236 418.056 449.408C419.23 450.58 420.736 451.362 422.37 451.647C424.004 451.932 425.686 451.706 427.187 451C428.688 450.293 429.935 449.142 430.757 447.701C431.579 446.26 431.937 444.601 431.782 442.95L431.823 442.989C431.707 441.609 431.893 440.219 432.369 438.918C432.845 437.617 433.599 436.435 434.579 435.455C435.559 434.475 436.74 433.721 438.041 433.245C439.343 432.769 440.732 432.583 442.113 432.7L442.071 432.66C443.42 432.782 444.778 432.56 446.019 432.017C447.26 431.474 448.344 430.626 449.17 429.553C449.996 428.479 450.537 427.215 450.744 425.876C450.952 424.537 450.817 423.168 450.354 421.895C449.891 420.622 449.115 419.487 448.096 418.594C447.077 417.701 445.85 417.08 444.527 416.788C443.204 416.496 441.829 416.542 440.529 416.923C439.23 417.304 438.047 418.007 437.091 418.967H437.084Z" fill="#394149"/>
<path d="M420.915 430.508L420.873 430.469C422.047 430.587 423.232 430.443 424.343 430.047C425.454 429.651 426.463 429.013 427.297 428.18C428.131 427.346 428.77 426.337 429.167 425.227C429.564 424.116 429.708 422.931 429.591 421.757L429.633 421.797C429.516 420.416 429.702 419.027 430.178 417.725C430.654 416.424 431.408 415.242 432.388 414.263C433.368 413.283 434.55 412.529 435.851 412.053C437.152 411.577 438.542 411.391 439.922 411.507L439.881 411.468C441.532 411.623 443.192 411.265 444.632 410.442C446.073 409.62 447.225 408.373 447.931 406.871C448.636 405.37 448.862 403.688 448.577 402.053C448.291 400.419 447.509 398.913 446.335 397.74C445.162 396.567 443.656 395.784 442.022 395.499C440.388 395.213 438.705 395.439 437.204 396.145C435.703 396.851 434.456 398.002 433.633 399.443C432.81 400.884 432.452 402.543 432.607 404.195L432.568 404.153C432.685 405.534 432.499 406.923 432.023 408.225C431.548 409.526 430.793 410.708 429.814 411.688C428.834 412.668 427.652 413.422 426.35 413.898C425.049 414.373 423.659 414.559 422.278 414.442L422.318 414.484C421.144 414.366 419.959 414.51 418.848 414.906C417.737 415.302 416.728 415.939 415.894 416.773C415.06 417.607 414.421 418.615 414.024 419.726C413.628 420.837 413.483 422.022 413.6 423.195L413.561 423.156C413.677 424.536 413.49 425.926 413.014 427.227C412.538 428.528 411.784 429.71 410.805 430.689C409.825 431.669 408.643 432.423 407.342 432.899C406.041 433.375 404.652 433.562 403.271 433.445L403.311 433.485C401.659 433.33 400 433.688 398.559 434.511C397.118 435.333 395.967 436.58 395.261 438.081C394.555 439.583 394.329 441.265 394.615 442.899C394.9 444.533 395.683 446.04 396.856 447.213C398.029 448.386 399.535 449.169 401.169 449.454C402.804 449.739 404.486 449.514 405.987 448.808C407.489 448.102 408.736 446.95 409.558 445.51C410.381 444.069 410.739 442.41 410.584 440.758L410.625 440.798C410.509 439.417 410.695 438.027 411.171 436.726C411.647 435.425 412.401 434.243 413.381 433.263C414.361 432.284 415.542 431.529 416.843 431.054C418.145 430.578 419.534 430.391 420.915 430.508Z" fill="#394149"/>
<path d="M406.223 426.108C407.054 425.273 407.69 424.264 408.086 423.154C408.482 422.044 408.628 420.86 408.514 419.688L408.556 419.727C408.439 418.346 408.625 416.956 409.102 415.655C409.578 414.353 410.332 413.171 411.313 412.191C412.293 411.211 413.475 410.457 414.777 409.982C416.079 409.506 417.469 409.32 418.85 409.438L418.808 409.398C420.459 409.553 422.118 409.195 423.558 408.372C424.998 407.549 426.149 406.303 426.854 404.802C427.56 403.301 427.785 401.619 427.5 399.986C427.214 398.352 426.432 396.846 425.259 395.674C424.087 394.501 422.581 393.719 420.947 393.433C419.314 393.148 417.632 393.373 416.131 394.079C414.63 394.784 413.384 395.935 412.561 397.375C411.738 398.815 411.38 400.474 411.535 402.125L411.495 402.086C411.612 403.466 411.426 404.856 410.95 406.157C410.474 407.458 409.72 408.64 408.74 409.62C407.76 410.6 406.579 411.354 405.277 411.829C403.976 412.305 402.587 412.492 401.206 412.375L401.245 412.414C399.896 412.293 398.538 412.515 397.298 413.059C396.057 413.602 394.974 414.45 394.148 415.523C393.322 416.597 392.781 417.862 392.574 419.2C392.367 420.539 392.501 421.908 392.965 423.181C393.428 424.454 394.205 425.589 395.223 426.482C396.242 427.374 397.47 427.995 398.792 428.287C400.115 428.579 401.49 428.532 402.79 428.152C404.089 427.771 405.272 427.068 406.228 426.108H406.223Z" fill="#394149"/>
<rect x="353" y="515.64" width="137.32" height="137.32" rx="18" fill="white"/>
<path d="M443.252 600.974L443.256 600.979L434.564 608.605C432.782 610.207 430.478 611.115 428.076 611.16L428.056 611.16H398.27C397.168 611.206 396.069 611 395.059 610.557C394.031 610.106 393.124 609.422 392.409 608.559C391.694 607.697 391.192 606.68 390.942 605.59C390.697 604.519 390.703 603.405 390.959 602.336L393.252 590.66C393.456 589.644 393.995 588.724 394.784 588.046L394.897 587.95C394.653 587.582 394.474 587.173 394.369 586.743C394.23 586.173 394.226 585.579 394.354 585.008L396.651 573.31L396.655 573.293C397.102 571.194 398.228 569.299 399.862 567.898L407.819 560.916C408.187 560.495 408.592 560.103 409.029 559.745C410.771 558.318 412.938 557.506 415.193 557.434L415.231 557.433L445.052 557.518C446.153 557.472 447.251 557.679 448.26 558.121C449.287 558.572 450.195 559.256 450.91 560.119C451.625 560.981 452.127 561.998 452.377 563.088C452.622 564.16 452.616 565.273 452.36 566.341L446.664 595.418L446.656 595.454C446.156 597.615 444.96 599.553 443.252 600.974Z" fill="#03301D"/>
<path d="M444.586 560.205C445.37 560.165 446.152 560.309 446.869 560.626C447.587 560.943 448.221 561.422 448.72 562.028C449.219 562.633 449.57 563.346 449.744 564.111C449.918 564.876 449.911 565.671 449.723 566.433L444.051 595.529C443.653 597.257 442.694 598.806 441.323 599.932C439.953 601.059 438.248 601.7 436.475 601.757H406.8C406.016 601.796 405.234 601.651 404.516 601.335C403.798 601.018 403.164 600.538 402.664 599.934C402.164 599.329 401.813 598.616 401.637 597.851C401.461 597.086 401.467 596.291 401.653 595.529L403.943 583.758C404.077 583.183 404.397 582.669 404.854 582.296C405.311 581.922 405.878 581.71 406.468 581.692C411.883 581.885 417.084 582.292 421.932 584.036L423.002 590.767C423.028 590.929 423.114 591.076 423.242 591.179C423.371 591.282 423.533 591.333 423.697 591.323C423.886 591.32 424.071 591.267 424.232 591.169C424.394 591.071 424.527 590.932 424.618 590.767L428.278 584.036L435.597 581.724C435.774 581.668 435.934 581.566 436.059 581.429C436.185 581.292 436.273 581.125 436.314 580.943C436.356 580.783 436.336 580.613 436.259 580.466C436.182 580.32 436.053 580.207 435.897 580.151L429.476 577.851L428.406 571.12C428.38 570.956 428.294 570.808 428.166 570.704C428.038 570.599 427.876 570.545 427.71 570.553C427.52 570.557 427.335 570.612 427.173 570.711C427.012 570.811 426.879 570.952 426.79 571.12L423.13 577.851C417.823 579.373 412.332 580.158 406.811 580.184C406.546 580.206 406.279 580.165 406.033 580.065C405.787 579.964 405.568 579.807 405.394 579.605C405.221 579.403 405.098 579.163 405.035 578.905C404.973 578.646 404.972 578.377 405.034 578.118L407.324 566.347C407.72 564.619 408.678 563.071 410.046 561.944C411.415 560.818 413.118 560.176 414.89 560.119L444.586 560.205Z" fill="#86EE02"/>
<rect x="29.9995" y="30" width="137.32" height="137.32" rx="18" fill="white"/>
<path d="M105.77 72.5551L100.351 71.103L95.7841 88.1464L91.6612 72.7595L86.242 74.2116L90.6965 90.8359L79.6012 79.7407L75.6342 83.7078L87.8043 95.878L72.6483 91.817L71.1963 97.236L87.7561 101.673C87.5665 100.855 87.4662 100.003 87.4662 99.1279C87.4662 92.9309 92.4898 87.9073 98.6868 87.9073C104.884 87.9073 109.907 92.9309 109.907 99.1279C109.907 99.9978 109.808 100.845 109.621 101.658L124.671 105.69L126.123 100.271L109.497 95.8161L124.654 91.7548L123.202 86.3357L106.577 90.7903L117.672 79.6952L113.705 75.7281L101.704 87.7294L105.77 72.5551Z" fill="#F97316"/>
<path d="M109.605 101.721C109.141 103.685 108.16 105.45 106.814 106.863L117.717 117.766L121.684 113.799L109.605 101.721Z" fill="#F97316"/>
<path d="M106.705 106.978C105.343 108.369 103.622 109.407 101.691 109.942L105.659 124.748L111.078 123.296L106.705 106.978Z" fill="#F97316"/>
<path d="M101.488 109.996C100.593 110.227 99.6538 110.349 98.6864 110.349C97.65 110.349 96.6464 110.208 95.6936 109.945L91.7227 124.765L97.1417 126.217L101.488 109.996Z" fill="#F97316"/>
<path d="M95.5021 109.89C93.6013 109.328 91.9105 108.277 90.5762 106.882L79.6465 117.812L83.6136 121.779L95.5021 109.89Z" fill="#F97316"/>
<path d="M90.487 106.786C89.1756 105.382 88.2204 103.64 87.7657 101.707L72.6667 105.752L74.1188 111.171L90.487 106.786Z" fill="#F97316"/>
<rect x="517" y="29.9199" width="137.32" height="137.32" rx="18" fill="white"/>
<g clip-path="url(#clip4_8484_6227)">
<path fill-rule="evenodd" clip-rule="evenodd" d="M577.028 71.8076C573.93 71.8076 570.958 73.0084 568.767 75.1459L558.195 85.46V90.1811C558.195 93.5166 559.664 96.5174 562.005 98.6017C559.664 100.686 558.195 103.687 558.195 107.022V111.743L568.767 122.058C570.958 124.195 573.93 125.396 577.028 125.396C580.447 125.396 583.523 123.963 585.659 121.68C587.796 123.963 590.872 125.396 594.29 125.396C597.389 125.396 600.36 124.195 602.551 122.058L613.123 111.743V107.022C613.123 103.687 611.655 100.686 609.314 98.6017C611.655 96.5174 613.123 93.5166 613.123 90.1811V85.46L602.551 75.1459C600.36 73.0084 597.389 71.8076 594.29 71.8076C590.872 71.8076 587.796 73.2403 585.659 75.524C583.523 73.2403 580.447 71.8076 577.028 71.8076ZM593.567 98.6017C593.436 98.4845 593.306 98.3641 593.18 98.2406L585.659 90.9035L578.139 98.2406C578.012 98.3641 577.883 98.4845 577.751 98.6017C577.883 98.719 578.012 98.8394 578.139 98.9629L585.659 106.3L593.18 98.9629C593.306 98.8394 593.436 98.719 593.567 98.6017ZM588.711 111.743V113.998C588.711 117.004 591.209 119.442 594.29 119.442C595.77 119.442 597.189 118.868 598.236 117.847L607.02 109.277V107.022C607.02 104.016 604.522 101.579 601.441 101.579C599.961 101.579 598.542 102.152 597.495 103.173L588.711 111.743ZM582.608 111.743L573.823 103.173C572.777 102.152 571.358 101.579 569.878 101.579C566.796 101.579 564.298 104.016 564.298 107.022V109.277L573.083 117.847C574.129 118.868 575.548 119.442 577.028 119.442C580.11 119.442 582.608 117.004 582.608 113.998V111.743ZM582.608 83.2053V85.46L573.823 94.0303C572.777 95.0511 571.358 95.6246 569.878 95.6246C566.796 95.6246 564.298 93.1875 564.298 90.1811V87.9264L573.083 79.3562C574.129 78.3354 575.548 77.7619 577.028 77.7619C580.11 77.7619 582.608 80.199 582.608 83.2053ZM597.495 94.0303L588.711 85.46V83.2053C588.711 80.199 591.209 77.7619 594.29 77.7619C595.77 77.7619 597.189 78.3354 598.236 79.3562L607.02 87.9264V90.1811C607.02 93.1875 604.522 95.6246 601.441 95.6246C599.961 95.6246 598.542 95.0511 597.495 94.0303Z" fill="#FF630B"/>
</g>
<rect x="517" y="191.56" width="137.32" height="137.32" rx="18" fill="white"/>
<g clip-path="url(#clip5_8484_6227)">
<path fill-rule="evenodd" clip-rule="evenodd" d="M571.069 231.04C579.127 231.04 585.66 237.572 585.66 245.63V231.04H600.25C608.308 231.04 614.84 237.572 614.84 245.63C614.84 253.688 608.308 260.22 600.25 260.22C608.308 260.22 614.84 266.752 614.84 274.81C614.84 278.811 613.23 282.436 610.621 285.072L610.567 285.127L610.518 285.175C607.882 287.787 604.254 289.401 600.25 289.401C596.273 289.401 592.667 287.809 590.035 285.228C590.001 285.195 589.967 285.161 589.933 285.127C589.901 285.095 589.869 285.063 589.838 285.031C587.254 282.399 585.66 278.791 585.66 274.81C585.66 282.868 579.127 289.401 571.069 289.401C563.012 289.401 556.479 282.868 556.479 274.81V260.22H571.069C563.012 260.22 556.479 253.688 556.479 245.63C556.479 237.572 563.012 231.04 571.069 231.04ZM582.742 245.63C582.742 252.076 577.516 257.302 571.069 257.302V233.958C577.516 233.958 582.742 239.183 582.742 245.63ZM611.922 274.81C611.922 268.364 606.696 263.138 600.25 263.138C593.804 263.138 588.578 268.364 588.578 274.81H611.922ZM559.397 263.138V274.81C559.397 281.257 564.623 286.483 571.069 286.483C577.516 286.483 582.742 281.257 582.742 274.81V263.138H559.397ZM588.578 257.302V233.958H600.25C606.696 233.958 611.922 239.183 611.922 245.63C611.922 252.076 606.696 257.302 600.25 257.302H588.578Z" fill="#5417D7"/>
</g>
<rect x="517" y="354.32" width="137.32" height="137.32" rx="18" fill="white"/>
<g clip-path="url(#clip6_8484_6227)">
<path fill-rule="evenodd" clip-rule="evenodd" d="M588.82 407.497C586.939 407.497 585.076 407.861 583.338 408.57C581.6 409.279 580.02 410.318 578.69 411.627C577.36 412.937 576.304 414.491 575.584 416.202C575.08 417.401 574.747 418.661 574.593 419.945C574.472 420.953 573.912 421.885 572.991 422.339L570.267 423.679C569.346 424.133 568.741 425.064 568.862 426.073C569.016 427.357 569.349 428.617 569.854 429.816C570.574 431.527 571.629 433.081 572.959 434.391C574.29 435.7 575.869 436.739 577.607 437.448C579.346 438.157 581.208 438.521 583.09 438.521C584.971 438.521 586.834 438.157 588.572 437.448C590.31 436.739 591.89 435.7 593.22 434.391C594.55 433.081 595.606 431.527 596.326 429.816C596.83 428.617 597.163 427.357 597.317 426.073C597.438 425.064 597.998 424.133 598.919 423.679L601.643 422.339C602.564 421.885 603.169 420.953 603.048 419.945C602.894 418.661 602.561 417.401 602.056 416.202C601.336 414.491 600.281 412.937 598.951 411.627C597.62 410.318 596.041 409.279 594.303 408.57C592.565 407.861 590.702 407.497 588.82 407.497ZM595.438 418.9C595.583 419.244 595.699 419.597 595.786 419.956C596.027 420.944 595.401 421.885 594.48 422.339L591.756 423.679C590.835 424.133 590.296 425.074 590.056 426.062C589.968 426.421 589.852 426.774 589.708 427.118C589.348 427.973 588.82 428.75 588.155 429.405C587.49 430.06 586.7 430.579 585.831 430.934C584.962 431.288 584.03 431.47 583.09 431.47C582.149 431.47 581.218 431.288 580.349 430.934C579.479 430.579 578.69 430.06 578.025 429.405C577.359 428.75 576.832 427.973 576.472 427.118C576.327 426.774 576.211 426.421 576.124 426.062C575.883 425.074 576.509 424.133 577.43 423.679L580.154 422.339C581.075 421.885 581.614 420.944 581.854 419.956C581.942 419.597 582.058 419.244 582.202 418.9C582.562 418.045 583.09 417.268 583.755 416.613C584.42 415.958 585.21 415.439 586.079 415.084C586.948 414.73 587.88 414.548 588.82 414.548C589.761 414.548 590.693 414.73 591.562 415.084C592.431 415.439 593.22 415.958 593.885 416.613C594.551 417.268 595.078 418.045 595.438 418.9Z" fill="#E22935"/>
<path fill-rule="evenodd" clip-rule="evenodd" d="M588.821 396.215C585.435 396.215 582.081 396.871 578.953 398.147C575.824 399.423 572.981 401.293 570.586 403.65C568.192 406.007 566.292 408.805 564.996 411.885C563.916 414.453 563.272 417.175 563.089 419.942C563.021 420.956 562.451 421.885 561.53 422.339L558.806 423.679C557.885 424.133 557.291 425.062 557.358 426.076C557.542 428.843 558.185 431.565 559.266 434.133C560.562 437.213 562.461 440.011 564.856 442.368C567.251 444.725 570.093 446.595 573.222 447.871C576.351 449.147 579.704 449.803 583.09 449.803C586.477 449.803 589.83 449.147 592.959 447.871C596.087 446.595 598.93 444.725 601.325 442.368C603.719 440.011 605.619 437.213 606.915 434.133C607.996 431.565 608.639 428.843 608.823 426.076C608.89 425.062 609.46 424.133 610.381 423.679L613.105 422.339C614.026 421.885 614.621 420.956 614.553 419.942C614.37 417.175 613.726 414.453 612.645 411.885C611.349 408.805 609.45 406.007 607.055 403.65C604.661 401.293 601.818 399.423 598.689 398.147C595.561 396.871 592.207 396.215 588.821 396.215ZM601.639 426.075C601.732 425.063 602.297 424.133 603.218 423.679L605.942 422.339C606.863 421.885 607.462 420.955 607.369 419.943C607.2 418.103 606.748 416.296 606.028 414.583C605.091 412.359 603.72 410.338 601.99 408.636C600.261 406.933 598.208 405.583 595.948 404.661C593.689 403.74 591.267 403.266 588.821 403.266C586.375 403.266 583.953 403.74 581.694 404.661C579.434 405.583 577.381 406.933 575.652 408.636C573.922 410.338 572.55 412.359 571.614 414.583C570.894 416.296 570.442 418.103 570.273 419.943C570.18 420.955 569.615 421.885 568.693 422.339L565.969 423.679C565.048 424.133 564.449 425.063 564.542 426.075C564.712 427.915 565.163 429.722 565.884 431.435C566.82 433.659 568.192 435.68 569.921 437.382C571.65 439.085 573.704 440.435 575.963 441.357C578.223 442.278 580.645 442.752 583.09 442.752C585.536 442.752 587.958 442.278 590.218 441.357C592.477 440.435 594.53 439.085 596.26 437.382C597.989 435.68 599.361 433.659 600.297 431.435C601.018 429.722 601.469 427.915 601.639 426.075Z" fill="#E22935"/>
<path d="M614.602 421.024H607.436C607.433 421.384 607.218 421.711 606.889 421.872L602.272 424.145C601.943 424.307 601.733 424.633 601.707 424.993H608.873C608.895 424.633 609.106 424.307 609.435 424.145L614.052 421.872C614.381 421.711 614.595 421.385 614.602 421.024Z" fill="#FF6670"/>
<path d="M557.311 424.993H564.477C564.48 424.633 564.694 424.307 565.023 424.145L569.64 421.872C569.97 421.711 570.18 421.384 570.206 421.024H563.04C563.017 421.385 562.806 421.711 562.477 421.872L557.86 424.145C557.531 424.307 557.317 424.633 557.311 424.993Z" fill="#FF6670"/>
<path d="M574.506 421.024C574.476 421.384 574.267 421.711 573.938 421.872L569.321 424.145C568.991 424.307 568.776 424.633 568.777 424.993H575.952C575.936 424.634 576.155 424.307 576.484 424.145L581.101 421.872C581.43 421.71 581.637 421.384 581.681 421.024H574.506Z" fill="#FF6670"/>
<path d="M595.959 421.024C595.974 421.384 595.756 421.71 595.426 421.872L590.809 424.145C590.48 424.307 590.273 424.634 590.229 424.993H597.405C597.434 424.633 597.643 424.307 597.973 424.145L602.59 421.872C602.919 421.711 603.134 421.384 603.134 421.024H595.959Z" fill="#FF6670"/>
</g>
<rect x="517" y="516.2" width="137.32" height="137.32" rx="18" fill="white"/>
<g clip-path="url(#clip7_8484_6227)">
<path fill-rule="evenodd" clip-rule="evenodd" d="M593.766 572.729C591.366 571.126 588.545 570.27 585.66 570.27V555.68C591.431 555.68 597.073 557.391 601.872 560.597C606.67 563.804 610.41 568.361 612.619 573.693C614.828 579.025 615.405 584.893 614.28 590.553C613.154 596.213 610.374 601.413 606.293 605.494C602.213 609.575 597.013 612.354 591.353 613.48C585.692 614.606 579.825 614.028 574.493 611.819C569.161 609.611 564.603 605.871 561.397 601.072C558.191 596.273 556.479 590.632 556.479 584.86H571.069C571.069 587.746 571.925 590.567 573.528 592.966C575.132 595.365 577.41 597.235 580.076 598.34C582.742 599.444 585.676 599.733 588.506 599.17C591.336 598.607 593.936 597.218 595.977 595.177C598.017 593.137 599.407 590.537 599.97 587.707C600.533 584.876 600.244 581.943 599.139 579.277C598.035 576.611 596.165 574.332 593.766 572.729Z" fill="#007DFC"/>
<path fill-rule="evenodd" clip-rule="evenodd" d="M571.069 555.68C571.069 557.596 570.692 559.493 569.959 561.263C569.226 563.033 568.151 564.642 566.796 565.997C565.441 567.351 563.833 568.426 562.063 569.159C560.293 569.893 558.395 570.27 556.479 570.27L556.479 584.86C560.311 584.86 564.106 584.105 567.646 582.639C571.187 581.173 574.403 579.023 577.113 576.313C579.823 573.604 581.972 570.387 583.439 566.847C584.905 563.306 585.66 559.512 585.66 555.68L571.069 555.68Z" fill="#007DFC"/>
</g>
<line x1="-21" y1="515.775" x2="705" y2="515.775" stroke="#066F76" stroke-opacity="0.16" stroke-width="1.0211"/>
<line x1="-21" y1="652.601" x2="705" y2="652.601" stroke="#066F76" stroke-opacity="0.16" stroke-width="1.0211"/>
<line x1="-21" y1="491.267" x2="705" y2="491.267" stroke="#066F76" stroke-opacity="0.16" stroke-width="1.0211"/>
<line x1="-21" y1="353.42" x2="705" y2="353.42" stroke="#066F76" stroke-opacity="0.16" stroke-width="1.0211"/>
<line x1="-21" y1="328.913" x2="705" y2="328.913" stroke="#066F76" stroke-opacity="0.16" stroke-width="1.0211"/>
<line x1="-21" y1="192.086" x2="705" y2="192.086" stroke="#066F76" stroke-opacity="0.16" stroke-width="1.0211"/>
<line x1="-21" y1="167.581" x2="705" y2="167.581" stroke="#066F76" stroke-opacity="0.16" stroke-width="1.0211"/>
<line x1="-21" y1="29.7321" x2="705" y2="29.7321" stroke="#066F76" stroke-opacity="0.16" stroke-width="1.0211"/>
<line x1="654.456" y1="-28.4268" x2="654.456" y2="712.427" stroke="#066F76" stroke-opacity="0.16" stroke-width="1.0211"/>
<path d="M517.118 -28.4268L517.118 712.427" stroke="#066F76" stroke-opacity="0.16" stroke-width="1.0211"/>
<path d="M490.57 -28.4268L490.57 712.427" stroke="#066F76" stroke-opacity="0.16" stroke-width="1.0211"/>
<path d="M353.743 -28.4268L353.743 712.427" stroke="#066F76" stroke-opacity="0.16" stroke-width="1.0211"/>
<path d="M328.216 -28.4268L328.216 712.427" stroke="#066F76" stroke-opacity="0.16" stroke-width="1.0211"/>
<path d="M191.387 -28.4268L191.387 712.427" stroke="#066F76" stroke-opacity="0.16" stroke-width="1.0211"/>
<path d="M166.882 -28.4268L166.882 712.427" stroke="#066F76" stroke-opacity="0.16" stroke-width="1.0211"/>
<path d="M30.0549 -28.4268L30.0549 712.427" stroke="#066F76" stroke-opacity="0.16" stroke-width="1.0211"/>
</g>
</g>
<defs>
<clipPath id="clip0_8484_6227">
<rect width="684" height="684" fill="white"/>
</clipPath>
<clipPath id="clip1_8484_6227">
<rect width="684" height="684" fill="white"/>
</clipPath>
<clipPath id="clip2_8484_6227">
<rect width="54.928" height="54.928" fill="white" transform="translate(232.196 395.436)"/>
</clipPath>
<clipPath id="clip3_8484_6227">
<rect width="51.495" height="58.361" fill="white" transform="translate(233.912 232.08)"/>
</clipPath>
<clipPath id="clip4_8484_6227">
<rect width="54.928" height="54.928" fill="white" transform="translate(558.196 71.1162)"/>
</clipPath>
<clipPath id="clip5_8484_6227">
<rect width="58.361" height="58.361" fill="white" transform="translate(556.479 231.04)"/>
</clipPath>
<clipPath id="clip6_8484_6227">
<rect width="58.361" height="54.928" fill="white" transform="translate(556.479 395.516)"/>
</clipPath>
<clipPath id="clip7_8484_6227">
<rect width="58.361" height="58.361" fill="white" transform="translate(556.479 555.68)"/>
</clipPath>
</defs>
</svg>
