<svg width="24" height="24" viewBox="0 0 24 24" fill="none" xmlns="http://www.w3.org/2000/svg">
<g clip-path="url(#clip0_8436_26741)">
<path d="M19.4527 2.6665H4.54915C4.30149 2.66693 4.05634 2.71555 3.82769 2.80961C3.59905 2.90366 3.39139 3.0413 3.21658 3.21466C3.04176 3.38803 2.9032 3.59373 2.80882 3.82001C2.71444 4.0463 2.66609 4.28874 2.66652 4.53349V19.4672C2.66566 19.7122 2.71371 19.955 2.80791 20.1815C2.90211 20.4081 3.04061 20.6142 3.21549 20.7878C3.39036 20.9614 3.59817 21.0992 3.82702 21.1934C4.05587 21.2875 4.30126 21.3361 4.54915 21.3364H19.4527C19.7003 21.336 19.9453 21.2874 20.1738 21.1934C20.4023 21.0994 20.6098 20.9618 20.7845 20.7885C20.9593 20.6153 21.0977 20.4097 21.1921 20.1835C21.2864 19.9574 21.3347 19.7151 21.3343 19.4705V4.53349C21.3351 4.03937 21.1374 3.56514 20.7846 3.21504C20.4318 2.86495 19.9527 2.66764 19.4527 2.6665V2.6665ZM8.6564 17.4372H6.14515V9.45204H8.6564V17.4372ZM7.38503 8.4724C6.59137 8.4724 6.08217 7.9166 6.08217 7.23097C6.07891 6.52924 6.60766 5.99275 7.41977 5.99275C8.23189 5.99275 8.72263 6.52924 8.74108 7.23311C8.73891 7.9166 8.22754 8.4724 7.38503 8.4724ZM17.8263 17.4372H15.3151V13.0111C15.3151 11.9832 14.9514 11.2804 14.0426 11.2804C13.3489 11.2804 12.9363 11.7547 12.7539 12.2117C12.6896 12.412 12.6617 12.622 12.6714 12.8319V17.4372H10.1601V12.0014C10.1601 11.0057 10.1265 10.1774 10.0939 9.45418H12.2751L12.3902 10.5647H12.4401C12.7658 10.0422 13.5801 9.27714 14.9373 9.27714C16.5897 9.27714 17.8285 10.3716 17.8285 12.7225L17.8263 17.4372Z" fill="white"/>
</g>
<defs>
<clipPath id="clip0_8436_26741">
<rect width="18.6667" height="18.6667" fill="white" transform="translate(2.6665 2.6665)"/>
</clipPath>
</defs>
</svg>
