<svg width="112" height="36" viewBox="0 0 112 36" fill="none" xmlns="http://www.w3.org/2000/svg">
<path fill-rule="evenodd" clip-rule="evenodd" d="M22.7415 12.3176V18.1932C22.7415 21.2277 20.2753 23.6938 17.2409 23.6938H11.3652V17.8182C11.3652 14.7838 13.8314 12.3176 16.8658 12.3176H22.7415Z" fill="#5ACB4A"/>
<path d="M28.6171 12.3176H22.7415V18.1932C22.7415 21.2277 20.2753 23.6938 17.2409 23.6938H11.3652V29.5695C11.3652 32.6039 13.8314 35.0701 16.8658 35.0701H28.6171C31.6515 35.0701 34.1177 32.6039 34.1177 29.5695V17.8182C34.1177 14.7838 31.6515 12.3176 28.6171 12.3176Z" fill="#A3E96A"/>
<path d="M11.3762 17.8068C11.3762 14.7724 13.8424 12.3062 16.8768 12.3062H22.7524V6.43058C22.7524 3.39617 20.2863 0.929993 17.2518 0.929993H5.50059C2.46617 0.941358 0 3.40753 0 6.44195V18.1932C0 21.2276 2.46617 23.6938 5.50059 23.6938H11.3762V17.8182V17.8068Z" fill="#05848C"/>
<path d="M103.931 29.244C102.9 29.244 101.97 29.0418 101.141 28.6374C100.332 28.2329 99.6949 27.6768 99.2299 26.9691C98.7648 26.2411 98.5322 25.4121 98.5322 24.4819C98.5322 23.0866 99.0175 21.9745 99.9881 21.1454C100.959 20.2961 102.334 19.8007 104.113 19.6592L109.998 19.1738V21.7824L104.629 22.207C103.598 22.2879 102.839 22.5103 102.354 22.8743C101.869 23.2383 101.626 23.7337 101.626 24.3606C101.626 24.9672 101.889 25.4727 102.415 25.8772C102.94 26.2614 103.608 26.4535 104.417 26.4535C105.266 26.4535 106.034 26.2513 106.722 25.8468C107.43 25.4424 107.986 24.9065 108.39 24.2392C108.794 23.5517 108.997 22.8137 108.997 22.025V19.5378C108.997 18.4661 108.653 17.5865 107.965 16.899C107.298 16.2114 106.408 15.8677 105.296 15.8677C104.366 15.8677 103.588 16.0901 102.961 16.535C102.354 16.9799 101.95 17.5663 101.747 18.2942H101.414L98.8052 17.5663C99.2096 16.2114 99.978 15.1296 101.11 14.3208C102.243 13.5119 103.638 13.1075 105.296 13.1075C107.419 13.1075 109.067 13.7344 110.24 14.9881C111.413 16.2216 112 17.9606 112 20.2051V28.8193H109.209V24.3909L110.301 24.7246C110.058 25.5536 109.624 26.3119 108.997 26.9994C108.39 27.687 107.652 28.2329 106.782 28.6374C105.913 29.0418 104.963 29.244 103.931 29.244Z" fill="#013539"/>
<path d="M89.4463 28.8194V13.5625H92.3278V17.6573L91.5088 17.3843C91.9133 16.2115 92.6008 15.2813 93.5714 14.5938C94.5622 13.9063 95.6946 13.5625 96.9686 13.5625H98.4548V16.353H96.4833C95.6744 16.353 94.9667 16.5451 94.36 16.9293C93.7736 17.2933 93.3085 17.809 92.9648 18.4763C92.6412 19.1436 92.4795 19.9322 92.4795 20.8421V28.8194H89.4463Z" fill="#013539"/>
<path d="M78.441 29.244C77.4098 29.244 76.4796 29.0418 75.6505 28.6374C74.8417 28.2329 74.2047 27.6768 73.7396 26.9691C73.2745 26.2411 73.042 25.4121 73.042 24.4819C73.042 23.0866 73.5273 21.9745 74.4979 21.1454C75.4685 20.2961 76.8436 19.8007 78.623 19.6592L84.5074 19.1738V21.7824L79.1387 22.207C78.1074 22.2879 77.3491 22.5103 76.8638 22.8743C76.3785 23.2383 76.1358 23.7337 76.1358 24.3606C76.1358 24.9672 76.3987 25.4727 76.9245 25.8772C77.4502 26.2614 78.1175 26.4535 78.9263 26.4535C79.7756 26.4535 80.544 26.2513 81.2316 25.8468C81.9393 25.4424 82.4954 24.9065 82.8998 24.2392C83.3042 23.5517 83.5064 22.8137 83.5064 22.025V19.5378C83.5064 18.4661 83.1627 17.5865 82.4752 16.899C81.8079 16.2114 80.9181 15.8677 79.806 15.8677C78.8758 15.8677 78.0973 16.0901 77.4704 16.535C76.8638 16.9799 76.4594 17.5663 76.2572 18.2942H75.9235L73.315 17.5663C73.7194 16.2114 74.4878 15.1296 75.6202 14.3208C76.7526 13.5119 78.1478 13.1075 79.806 13.1075C81.9292 13.1075 83.5772 13.7344 84.75 14.9881C85.9229 16.2216 86.5093 17.9606 86.5093 20.2051V28.8193H83.7188V24.3909L84.8107 24.7246C84.5681 25.5536 84.1333 26.3119 83.5064 26.9994C82.8998 27.687 82.1617 28.2329 81.2922 28.6374C80.4227 29.0418 79.4723 29.244 78.441 29.244Z" fill="#013539"/>
<path d="M67.4248 28.8194V6.9805L70.367 6.61652L70.458 6.85917V28.8194H67.4248Z" fill="#013539"/>
<path d="M56.1089 29.244C54.1677 29.244 52.4489 28.789 50.9525 27.8791C49.4561 26.9489 48.2833 25.6547 47.434 23.9966C46.605 22.3385 46.1904 20.4074 46.1904 18.2032C46.1904 15.9789 46.605 14.0478 47.434 12.4099C48.2833 10.7517 49.4561 9.4677 50.9525 8.55775C52.4489 7.62758 54.1677 7.16249 56.1089 7.16249C58.1715 7.16249 60.0015 7.70846 61.599 8.80041C63.1964 9.89235 64.3591 11.419 65.0871 13.3805L62.4482 14.1388L62.1146 14.0781C61.5888 12.784 60.8002 11.7931 59.7487 11.1056C58.6972 10.4181 57.5042 10.0743 56.1696 10.0743C54.8148 10.0743 53.6116 10.408 52.5601 11.0753C51.5288 11.7426 50.72 12.6829 50.1336 13.8961C49.5471 15.1094 49.2539 16.5451 49.2539 18.2032C49.2539 19.8614 49.5471 21.2971 50.1336 22.5104C50.72 23.7236 51.5288 24.6639 52.5601 25.3312C53.6116 25.9985 54.8148 26.3322 56.1696 26.3322C57.5042 26.3322 58.6972 25.9884 59.7487 25.3009C60.8002 24.5931 61.5888 23.6023 62.1146 22.3284L62.4482 22.2677L65.0871 23.026C64.3591 24.9874 63.1964 26.5141 61.599 27.6061C60.0015 28.698 58.1715 29.244 56.1089 29.244Z" fill="#013539"/>
</svg>
