<svg width="112" height="35" viewBox="0 0 112 35" fill="none" xmlns="http://www.w3.org/2000/svg">
<path fill-rule="evenodd" clip-rule="evenodd" d="M22.741 11.3876V17.2632C22.741 20.2977 20.2748 22.7638 17.2404 22.7638H11.3647V16.8882C11.3647 13.8538 13.8309 11.3876 16.8653 11.3876H22.741Z" fill="#5ACB4A"/>
<path d="M28.6166 11.3876H22.741V17.2632C22.741 20.2977 20.2748 22.7638 17.2404 22.7638H11.3647V28.6395C11.3647 31.6739 13.8309 34.1401 16.8653 34.1401H28.6166C31.651 34.1401 34.1172 31.6739 34.1172 28.6395V16.8882C34.1172 13.8538 31.651 11.3876 28.6166 11.3876Z" fill="#A3E96A"/>
<path d="M11.3762 16.8768C11.3762 13.8424 13.8424 11.3762 16.8768 11.3762H22.7524V5.50059C22.7524 2.46617 20.2863 0 17.2518 0H5.50059C2.46617 0.0113649 0 2.47754 0 5.51195V17.2632C0 20.2976 2.46617 22.7638 5.50059 22.7638H11.3762V16.8882V16.8768Z" fill="#05848C"/>
<path d="M103.932 28.314C102.9 28.314 101.97 28.1118 101.141 27.7074C100.332 27.3029 99.6954 26.7469 99.2303 26.0391C98.7653 25.3112 98.5327 24.4821 98.5327 23.5519C98.5327 22.1567 99.018 21.0445 99.9886 20.2154C100.959 19.3661 102.334 18.8707 104.114 18.7292L109.998 18.2439V20.8524L104.629 21.277C103.598 21.3579 102.84 21.5803 102.355 21.9443C101.869 22.3083 101.627 22.8037 101.627 23.4306C101.627 24.0372 101.889 24.5427 102.415 24.9472C102.941 25.3314 103.608 25.5235 104.417 25.5235C105.266 25.5235 106.035 25.3213 106.722 24.9168C107.43 24.5124 107.986 23.9766 108.391 23.3093C108.795 22.6217 108.997 21.8837 108.997 21.095V18.6078C108.997 17.5361 108.653 16.6565 107.966 15.969C107.299 15.2815 106.409 14.9377 105.297 14.9377C104.367 14.9377 103.588 15.1601 102.961 15.605C102.355 16.0499 101.95 16.6363 101.748 17.3642H101.414L98.8057 16.6363C99.2101 15.2815 99.9785 14.1996 101.111 13.3908C102.243 12.5819 103.639 12.1775 105.297 12.1775C107.42 12.1775 109.068 12.8044 110.241 14.0581C111.414 15.2916 112 17.0306 112 19.2751V27.8894H109.209V23.4609L110.301 23.7946C110.059 24.6236 109.624 25.3819 108.997 26.0694C108.391 26.757 107.652 27.3029 106.783 27.7074C105.913 28.1118 104.963 28.314 103.932 28.314Z" fill="white"/>
<path d="M89.4463 27.8894V12.6325H92.3278V16.7273L91.5088 16.4543C91.9133 15.2815 92.6008 14.3513 93.5714 13.6638C94.5622 12.9763 95.6946 12.6325 96.9686 12.6325H98.4548V15.423H96.4833C95.6744 15.423 94.9667 15.6151 94.36 15.9993C93.7736 16.3633 93.3085 16.879 92.9648 17.5463C92.6412 18.2136 92.4795 19.0022 92.4795 19.9121V27.8894H89.4463Z" fill="white"/>
<path d="M78.441 28.314C77.4098 28.314 76.4796 28.1118 75.6505 27.7074C74.8417 27.3029 74.2047 26.7469 73.7396 26.0391C73.2745 25.3112 73.042 24.4821 73.042 23.5519C73.042 22.1567 73.5273 21.0445 74.4979 20.2154C75.4685 19.3661 76.8436 18.8707 78.623 18.7292L84.5074 18.2439V20.8524L79.1387 21.277C78.1074 21.3579 77.3491 21.5803 76.8638 21.9443C76.3785 22.3083 76.1358 22.8037 76.1358 23.4306C76.1358 24.0372 76.3987 24.5427 76.9245 24.9472C77.4502 25.3314 78.1175 25.5235 78.9263 25.5235C79.7756 25.5235 80.544 25.3213 81.2316 24.9168C81.9393 24.5124 82.4954 23.9766 82.8998 23.3093C83.3042 22.6217 83.5064 21.8837 83.5064 21.095V18.6078C83.5064 17.5361 83.1627 16.6565 82.4752 15.969C81.8079 15.2815 80.9181 14.9377 79.806 14.9377C78.8758 14.9377 78.0973 15.1601 77.4704 15.605C76.8638 16.0499 76.4594 16.6363 76.2572 17.3642H75.9235L73.315 16.6363C73.7194 15.2815 74.4878 14.1996 75.6202 13.3908C76.7526 12.5819 78.1478 12.1775 79.806 12.1775C81.9292 12.1775 83.5772 12.8044 84.75 14.0581C85.9229 15.2916 86.5093 17.0306 86.5093 19.2751V27.8894H83.7188V23.4609L84.8107 23.7946C84.5681 24.6236 84.1333 25.3819 83.5064 26.0694C82.8998 26.757 82.1617 27.3029 81.2922 27.7074C80.4227 28.1118 79.4723 28.314 78.441 28.314Z" fill="white"/>
<path d="M67.4248 27.8894V6.05051L70.367 5.68652L70.458 5.92918V27.8894H67.4248Z" fill="white"/>
<path d="M56.1089 28.314C54.1677 28.314 52.4489 27.859 50.9525 26.9491C49.4561 26.0189 48.2833 24.7248 47.434 23.0666C46.605 21.4085 46.1904 19.4774 46.1904 17.2733C46.1904 15.0489 46.605 13.1178 47.434 11.4799C48.2833 9.82175 49.4561 8.53771 50.9525 7.62776C52.4489 6.69759 54.1677 6.2325 56.1089 6.2325C58.1715 6.2325 60.0015 6.77847 61.599 7.87041C63.1964 8.96236 64.3591 10.4891 65.0871 12.4505L62.4482 13.2088L62.1146 13.1481C61.5888 11.854 60.8002 10.8631 59.7487 10.1756C58.6972 9.48811 57.5042 9.14435 56.1696 9.14435C54.8148 9.14435 53.6116 9.47799 52.5601 10.1453C51.5288 10.8126 50.72 11.7529 50.1336 12.9661C49.5471 14.1794 49.2539 15.6151 49.2539 17.2733C49.2539 18.9314 49.5471 20.3671 50.1336 21.5804C50.72 22.7936 51.5288 23.7339 52.5601 24.4012C53.6116 25.0685 54.8148 25.4022 56.1696 25.4022C57.5042 25.4022 58.6972 25.0584 59.7487 24.3709C60.8002 23.6631 61.5888 22.6723 62.1146 21.3984L62.4482 21.3377L65.0871 22.096C64.3591 24.0575 63.1964 25.5842 61.599 26.6761C60.0015 27.768 58.1715 28.314 56.1089 28.314Z" fill="white"/>
</svg>
