<svg width="24" height="24" viewBox="0 0 24 24" fill="none" xmlns="http://www.w3.org/2000/svg">
<path d="M20.8124 11.9999C20.8124 12.1491 20.7531 12.2921 20.6476 12.3976C20.5421 12.5031 20.3991 12.5624 20.2499 12.5624H11.9999C11.8507 12.5624 11.7076 12.5031 11.6021 12.3976C11.4966 12.2921 11.4374 12.1491 11.4374 11.9999C11.4374 11.8507 11.4966 11.7076 11.6021 11.6021C11.7076 11.4966 11.8507 11.4374 11.9999 11.4374H20.2499C20.3991 11.4374 20.5421 11.4966 20.6476 11.6021C20.7531 11.7076 20.8124 11.8507 20.8124 11.9999ZM11.9999 6.56239H20.2499C20.3991 6.56239 20.5421 6.50312 20.6476 6.39763C20.7531 6.29214 20.8124 6.14907 20.8124 5.99989C20.8124 5.8507 20.7531 5.70763 20.6476 5.60214C20.5421 5.49665 20.3991 5.43738 20.2499 5.43738H11.9999C11.8507 5.43738 11.7076 5.49665 11.6021 5.60214C11.4966 5.70763 11.4374 5.8507 11.4374 5.99989C11.4374 6.14907 11.4966 6.29214 11.6021 6.39763C11.7076 6.50312 11.8507 6.56239 11.9999 6.56239ZM20.2499 17.4374H11.9999C11.8507 17.4374 11.7076 17.4966 11.6021 17.6021C11.4966 17.7076 11.4374 17.8507 11.4374 17.9999C11.4374 18.1491 11.4966 18.2921 11.6021 18.3976C11.7076 18.5031 11.8507 18.5624 11.9999 18.5624H20.2499C20.3991 18.5624 20.5421 18.5031 20.6476 18.3976C20.7531 18.2921 20.8124 18.1491 20.8124 17.9999C20.8124 17.8507 20.7531 17.7076 20.6476 17.6021C20.5421 17.4966 20.3991 17.4374 20.2499 17.4374ZM7.85237 4.10238L5.24987 6.70395L4.14737 5.60238C4.04074 5.50302 3.8997 5.44893 3.75398 5.4515C3.60825 5.45407 3.46921 5.51311 3.36615 5.61617C3.26309 5.71923 3.20406 5.85827 3.20149 6.00399C3.19892 6.14972 3.25301 6.29075 3.35237 6.39738L4.85237 7.89738C4.95784 8.00272 5.10081 8.06189 5.24987 8.06189C5.39893 8.06189 5.5419 8.00272 5.64737 7.89738L8.64737 4.89739C8.74673 4.79075 8.80082 4.64972 8.79825 4.50399C8.79568 4.35827 8.73665 4.21923 8.63359 4.11617C8.53053 4.01311 8.39149 3.95407 8.24576 3.9515C8.10004 3.94893 7.959 4.00302 7.85237 4.10238ZM7.85237 10.1024L5.24987 12.7039L4.14737 11.6024C4.09587 11.5471 4.03377 11.5028 3.96477 11.472C3.89577 11.4413 3.82129 11.4248 3.74576 11.4234C3.67024 11.4221 3.59521 11.436 3.52517 11.4643C3.45513 11.4926 3.39151 11.5347 3.33809 11.5881C3.28468 11.6415 3.24257 11.7051 3.21428 11.7752C3.18599 11.8452 3.17209 11.9202 3.17343 11.9958C3.17476 12.0713 3.19129 12.1458 3.22204 12.2148C3.25278 12.2838 3.29711 12.3459 3.35237 12.3974L4.85237 13.8974C4.95784 14.0027 5.10081 14.0619 5.24987 14.0619C5.39893 14.0619 5.5419 14.0027 5.64737 13.8974L8.64737 10.8974C8.74673 10.7908 8.80082 10.6497 8.79825 10.504C8.79568 10.3583 8.73665 10.2192 8.63359 10.1162C8.53053 10.0131 8.39149 9.95407 8.24576 9.9515C8.10004 9.94893 7.959 10.003 7.85237 10.1024ZM7.85237 16.1024L5.24987 18.7039L4.14737 17.6024C4.04074 17.503 3.8997 17.4489 3.75398 17.4515C3.60825 17.4541 3.46921 17.5131 3.36615 17.6162C3.26309 17.7192 3.20406 17.8583 3.20149 18.004C3.19892 18.1497 3.25301 18.2908 3.35237 18.3974L4.85237 19.8974C4.95784 20.0027 5.10081 20.0619 5.24987 20.0619C5.39893 20.0619 5.5419 20.0027 5.64737 19.8974L8.64737 16.8974C8.74673 16.7908 8.80082 16.6497 8.79825 16.504C8.79568 16.3583 8.73665 16.2192 8.63359 16.1162C8.53053 16.0131 8.39149 15.9541 8.24576 15.9515C8.10004 15.9489 7.959 16.003 7.85237 16.1024Z" fill="#05848C"/>
</svg>
