<svg width="32" height="32" viewBox="0 0 32 32" fill="none" xmlns="http://www.w3.org/2000/svg">
<path d="M27.8812 8.66634C27.705 8.75634 27.5004 8.77308 27.3119 8.71291C27.1235 8.65274 26.9664 8.52054 26.8749 8.34509C25.8996 6.41913 24.4227 4.79196 22.5999 3.63509C22.4341 3.52793 22.3172 3.35967 22.2746 3.16683C22.232 2.974 22.2672 2.77215 22.3725 2.6051C22.4779 2.43806 22.6448 2.3193 22.8372 2.2746C23.0295 2.2299 23.2317 2.26286 23.3999 2.36634C25.4412 3.67212 27.0983 5.49747 28.2012 7.65509C28.2466 7.74251 28.2743 7.838 28.2828 7.93613C28.2913 8.03425 28.2803 8.13309 28.2506 8.22699C28.2209 8.3209 28.173 8.40803 28.1096 8.48341C28.0462 8.5588 27.9686 8.62096 27.8812 8.66634ZM5.12495 8.34509C6.10032 6.41913 7.57721 4.79196 9.39994 3.63509C9.56582 3.52793 9.68273 3.35967 9.72531 3.16683C9.76789 2.974 9.73269 2.77215 9.62736 2.6051C9.52204 2.43806 9.35507 2.3193 9.16272 2.2746C8.97036 2.2299 8.76814 2.26286 8.59995 2.36634C6.55869 3.67212 4.9016 5.49747 3.7987 7.65509C3.74352 7.74283 3.70713 7.84106 3.69182 7.94357C3.67651 8.04607 3.68261 8.15064 3.70975 8.25068C3.73688 8.35071 3.78445 8.44403 3.84945 8.52475C3.91446 8.60548 3.99549 8.67185 4.08744 8.71969C4.17939 8.76753 4.28025 8.79579 4.38367 8.80268C4.48708 8.80958 4.5908 8.79497 4.68829 8.75978C4.78578 8.72458 4.87491 8.66956 4.95007 8.59818C5.02522 8.52681 5.08477 8.44064 5.12495 8.34509ZM27.4999 22.1176C27.6548 22.3827 27.7371 22.6838 27.7388 22.9908C27.7404 23.2978 27.6612 23.5998 27.5093 23.8665C27.3573 24.1332 27.1378 24.3553 26.8729 24.5104C26.608 24.6655 26.3069 24.7481 25.9999 24.7501H20.6874C20.5053 25.8619 19.9339 26.8728 19.0752 27.6022C18.2166 28.3316 17.1266 28.7321 15.9999 28.7321C14.8733 28.7321 13.7833 28.3316 12.9247 27.6022C12.066 26.8728 11.4946 25.8619 11.3124 24.7501H5.99995C5.69233 24.7494 5.39033 24.6677 5.12436 24.5132C4.8584 24.3586 4.63787 24.1367 4.48501 23.8697C4.33214 23.6028 4.25234 23.3003 4.25365 22.9927C4.25495 22.6851 4.33732 22.3832 4.49244 22.1176C5.64119 20.1363 6.24995 17.3288 6.24995 14.0001C6.24995 11.4142 7.27717 8.93428 9.10565 7.1058C10.9341 5.27732 13.4141 4.25009 15.9999 4.25009C18.5858 4.25009 21.0658 5.27732 22.8942 7.1058C24.7227 8.93428 25.7499 11.4142 25.7499 14.0001C25.7499 17.3751 26.3424 20.1076 27.5099 22.1176H27.4999ZM19.1612 24.7501H12.8387C13.0083 25.4609 13.4125 26.0938 13.9861 26.5467C14.5597 26.9995 15.2692 27.2458 15.9999 27.2458C16.7307 27.2458 17.4402 26.9995 18.0138 26.5467C18.5874 26.0938 18.9916 25.4609 19.1612 24.7501ZM26.2137 22.8751C24.9112 20.6251 24.2499 17.6438 24.2499 14.0001C24.2499 11.8121 23.3808 9.71364 21.8336 8.16646C20.2864 6.61929 18.188 5.75009 15.9999 5.75009C13.8119 5.75009 11.7135 6.61929 10.1663 8.16646C8.61914 9.71364 7.74995 11.8121 7.74995 14.0001C7.74995 17.6451 7.0887 20.6251 5.7862 22.8751C5.76425 22.9131 5.7527 22.9562 5.7527 23.0001C5.7527 23.044 5.76425 23.0871 5.7862 23.1251C5.80678 23.1634 5.83748 23.1953 5.87496 23.2173C5.91243 23.2394 5.95523 23.2507 5.9987 23.2501H25.9999C26.0434 23.2507 26.0862 23.2394 26.1237 23.2173C26.1612 23.1953 26.1919 23.1634 26.2124 23.1251C26.2346 23.0872 26.2463 23.0441 26.2466 23.0003C26.2468 22.9564 26.2354 22.9132 26.2137 22.8751Z" fill="#05848C"/>
</svg>
