<svg xmlns="http://www.w3.org/2000/svg" width="56" height="49" viewBox="0 0 56 49" fill="none">
<path d="M25.3905 0V12.8363C21.3468 13.6826 18.1963 15.3753 15.9394 17.9144C13.6825 20.3594 12.5541 23.2275 12.5541 26.5189C12.5541 28.5877 12.8362 30.5626 13.4005 32.4433L5.64223 36.9572C5.36011 36.0168 5.17213 35.1704 5.07809 34.4181C4.98405 33.6658 4.9369 32.8665 4.9369 32.0202C4.9369 30.5155 5.31308 29.199 6.06539 28.0705C6.91173 26.848 8.04027 25.8606 9.45085 25.1083C10.8614 24.356 12.3659 23.9799 13.9646 23.9799C17.5381 23.9799 20.5003 25.2494 22.8513 27.7884C25.2023 30.2334 26.3778 32.9135 26.3778 35.8287C26.3778 39.3082 25.2023 42.2704 22.8513 44.7154C20.5003 47.1604 17.5381 48.3829 13.9646 48.3829C11.0494 48.3829 8.51045 47.5365 6.34756 45.8438C4.27871 44.0571 2.68011 41.7532 1.55165 38.932C0.517221 36.0168 0 32.9135 0 29.6222C0 26.8951 0.423122 23.9799 1.26947 20.8766C2.20986 17.6793 3.62048 14.623 5.50125 11.7078C7.47606 8.79262 10.0622 6.30059 13.2595 4.23174C16.5508 2.06885 20.5945 0.658273 25.3905 0Z" fill="#024147"/>
<path d="M55.0125 0V12.8363C50.9688 13.6826 47.8186 15.3753 45.5616 17.9144C43.3047 20.3594 42.1762 23.2275 42.1762 26.5189C42.1762 28.5877 42.4585 30.5626 43.0227 32.4433L35.2645 36.9572C34.9824 36.0168 34.7942 35.1704 34.7001 34.4181C34.6061 33.6658 34.5591 32.8665 34.5591 32.0202C34.5591 30.5155 34.9353 29.199 35.6876 28.0705C36.534 26.848 37.6625 25.8606 39.0731 25.1083C40.4837 24.356 41.9882 23.9799 43.5868 23.9799C47.1603 23.9799 50.1226 25.2494 52.4736 27.7884C54.8245 30.2334 56 32.9135 56 35.8287C56 39.3082 54.8245 42.2704 52.4736 44.7154C50.1226 47.1604 47.1603 48.3829 43.5868 48.3829C40.6716 48.3829 38.1327 47.5365 35.9698 45.8438C33.901 44.0571 32.3021 41.7532 31.1737 38.932C30.1392 36.0168 29.622 32.9135 29.622 29.6222C29.622 26.8951 30.0454 23.9799 30.8917 20.8766C31.8321 17.6793 33.2425 14.623 35.1233 11.7078C37.0981 8.79262 39.6842 6.30059 42.8815 4.23174C46.1729 2.06885 50.2165 0.658273 55.0125 0Z" fill="#024147"/>
</svg>